<?xml version="1.0" standalone="no"?>
<!DOCTYPE svg PUBLIC "-//W3C//DTD SVG 20010904//EN"
 "http://www.w3.org/TR/2001/REC-SVG-20010904/DTD/svg10.dtd">
<svg version="1.0" xmlns="http://www.w3.org/2000/svg"
 width="584.000000pt" height="405.000000pt" viewBox="0 0 584.000000 405.000000"
 preserveAspectRatio="xMidYMid meet">

<g transform="translate(0.000000,405.000000) scale(0.100000,-0.100000)"
fill="#000000" stroke="none">
<path d="M3978 3675 c-15 -41 -24 -75 -19 -75 4 0 18 30 32 67 13 37 26 71 27
75 2 4 0 8 -5 8 -4 0 -20 -34 -35 -75z"/>
<path d="M4081 3702 c-11 -39 1 -112 19 -112 4 0 3 16 -3 36 -8 25 -8 47 0 75
5 21 7 39 2 39 -5 0 -13 -17 -18 -38z"/>
<path d="M4445 3665 c0 -63 2 -73 13 -58 6 9 12 35 12 58 0 23 -6 49 -12 58
-11 15 -13 5 -13 -58z"/>
<path d="M4378 3708 c-2 -7 -2 -29 2 -48 3 -25 11 -35 25 -37 11 -2 14 0 8 3
-16 7 -17 64 -2 64 6 0 4 7 -5 15 -18 18 -23 19 -28 3z"/>
<path d="M4130 3660 c0 -22 5 -40 10 -40 6 0 10 13 10 30 0 17 7 33 18 39 14
9 13 10 -10 11 -26 0 -28 -3 -28 -40z"/>
<path d="M4194 3686 c-3 -8 -4 -25 -2 -38 2 -18 9 -23 33 -23 28 0 30 3 30 35
0 31 -3 35 -28 38 -17 2 -29 -2 -33 -12z m51 -26 c0 -29 -32 -41 -41 -16 -9
24 4 48 23 44 12 -2 18 -12 18 -28z"/>
<path d="M4290 3685 c-26 -32 13 -81 48 -59 34 22 22 74 -18 74 -10 0 -23 -7
-30 -15z m48 -22 c-4 -36 -38 -45 -38 -10 0 27 7 37 27 37 10 0 13 -9 11 -27z"/>
<path d="M4200 3300 l0 -40 -940 0 -940 0 0 -50 c0 -27 5 -50 10 -50 6 0 10
18 10 40 l0 40 460 0 460 0 0 -40 c0 -22 5 -40 10 -40 6 0 10 18 10 40 l0 40
455 0 455 0 0 -50 c0 -64 18 -66 22 -2 l3 47 453 3 452 2 0 -40 c0 -22 5 -40
10 -40 6 0 10 23 10 50 l0 50 -460 0 -460 0 0 40 c0 22 -4 40 -10 40 -5 0 -10
-18 -10 -40z"/>
<path d="M2210 2790 c0 -60 0 -60 30 -60 37 0 56 30 39 61 -7 14 -17 19 -30
16 -15 -4 -19 0 -19 19 0 13 -4 24 -10 24 -6 0 -10 -27 -10 -60z m55 -20 c0
-27 -22 -39 -31 -16 -8 22 3 49 19 43 6 -2 12 -14 12 -27z"/>
<path d="M3993 2780 c0 -47 1 -55 6 -30 8 46 35 48 39 3 4 -37 22 -45 22 -10
0 32 -24 62 -43 54 -12 -4 -17 1 -20 21 -2 15 -4 -2 -4 -38z"/>
<path d="M3232 2814 c-7 -8 -8 -14 -3 -14 5 0 11 -15 13 -32 2 -24 9 -34 23
-36 18 -2 18 -2 3 8 -10 6 -18 22 -18 35 0 17 6 25 18 26 13 0 14 2 2 6 -8 3
-17 9 -20 13 -3 4 -11 2 -18 -6z"/>
<path d="M2313 2770 c0 -25 2 -35 4 -22 2 12 2 32 0 45 -2 12 -4 2 -4 -23z"/>
<path d="M2351 2765 l2 -40 6 35 c9 50 41 55 41 6 0 -20 5 -36 10 -36 12 0 13
50 2 68 -5 6 -20 11 -35 10 -25 -2 -27 -6 -26 -43z"/>
<path d="M3152 2798 c-15 -15 -15 -41 0 -56 14 -14 44 -16 52 -4 3 5 -4 8 -16
8 -12 -1 -23 5 -25 12 -3 7 5 12 22 12 20 0 26 4 23 18 -4 21 -39 27 -56 10z
m43 -8 c3 -5 -3 -10 -14 -10 -12 0 -21 5 -21 10 0 6 6 10 14 10 8 0 18 -4 21
-10z"/>
<path d="M3294 2796 c-16 -42 21 -85 49 -57 7 7 4 8 -10 5 -13 -4 -22 0 -26
10 -10 25 3 48 24 43 11 -3 17 -1 13 4 -8 14 -44 11 -50 -5z"/>
<path d="M5020 2783 c0 -40 12 -53 43 -51 25 2 27 6 26 43 l-2 40 -6 -35 c-9
-50 -41 -55 -41 -6 0 20 -4 36 -10 36 -5 0 -10 -12 -10 -27z"/>
<path d="M5120 2791 c0 -10 7 -21 15 -25 24 -9 18 -29 -6 -23 -15 4 -19 3 -12
-4 15 -15 47 -7 51 13 2 9 -5 19 -17 23 -27 8 -27 29 -1 22 11 -3 18 -1 14 4
-10 17 -44 10 -44 -10z"/>
<path d="M5190 2768 c0 -21 5 -38 10 -38 6 0 10 15 10 34 0 24 5 36 18 39 9 3
5 4 -10 4 -25 -1 -28 -5 -28 -39z"/>
<path d="M4084 2786 c-3 -8 -4 -25 -2 -38 2 -18 9 -23 33 -23 28 0 30 3 30 35
0 31 -3 35 -28 38 -17 2 -29 -2 -33 -12z m51 -26 c0 -16 -6 -26 -18 -28 -19
-4 -32 20 -23 44 9 25 41 13 41 -16z"/>
<path d="M4181 2756 l2 -41 6 35 c4 22 12 35 21 35 9 0 17 -13 21 -35 l6 -35
4 35 c2 23 9 35 19 35 9 0 18 -13 22 -35 l6 -35 -1 40 -2 40 -52 1 -53 1 1
-41z"/>
<path d="M4320 2780 c-15 -28 4 -60 35 -60 14 0 25 4 25 8 0 5 -10 8 -21 8
-12 -1 -24 5 -26 12 -3 8 6 12 26 12 33 0 39 8 19 28 -18 18 -46 14 -58 -8z
m50 0 c0 -5 -9 -10 -21 -10 -11 0 -17 5 -14 10 3 6 13 10 21 10 8 0 14 -4 14
-10z"/>
<path d="M4190 2380 l0 -40 -980 0 -980 0 0 -55 c0 -30 5 -55 10 -55 6 0 10
20 10 45 l0 45 965 0 965 0 0 -50 c0 -64 18 -66 22 -2 l3 47 458 3 457 2 0
-39 c0 -22 5 -43 10 -46 6 -4 10 15 10 49 l0 56 -465 0 -465 0 0 40 c0 22 -4
40 -10 40 -5 0 -10 -18 -10 -40z"/>
<path d="M392 2178 c3 -8 28 -14 66 -16 51 -2 62 0 62 13 0 12 -13 15 -66 15
-48 0 -65 -3 -62 -12z"/>
<path d="M620 2175 c0 -12 13 -15 55 -15 42 0 55 3 55 15 0 12 -13 15 -55 15
-42 0 -55 -3 -55 -15z"/>
<path d="M830 2175 c0 -12 13 -15 55 -15 42 0 55 3 55 15 0 12 -13 15 -55 15
-42 0 -55 -3 -55 -15z"/>
<path d="M1040 2175 c0 -12 13 -15 55 -15 42 0 55 3 55 15 0 12 -13 15 -55 15
-42 0 -55 -3 -55 -15z"/>
<path d="M1250 2175 c0 -12 13 -15 55 -15 42 0 55 3 55 15 0 12 -13 15 -55 15
-42 0 -55 -3 -55 -15z"/>
<path d="M1460 2175 c0 -12 13 -15 55 -15 42 0 55 3 55 15 0 12 -13 15 -55 15
-42 0 -55 -3 -55 -15z"/>
<path d="M1670 2175 c0 -12 13 -15 55 -15 42 0 55 3 55 15 0 12 -13 15 -55 15
-42 0 -55 -3 -55 -15z"/>
<path d="M1880 2175 c0 -12 13 -15 55 -15 42 0 55 3 55 15 0 12 -13 15 -55 15
-42 0 -55 -3 -55 -15z"/>
<path d="M2090 2175 c0 -12 13 -15 55 -15 42 0 55 3 55 15 0 12 -13 15 -55 15
-42 0 -55 -3 -55 -15z"/>
<path d="M2300 2175 c0 -12 13 -15 55 -15 42 0 55 3 55 15 0 12 -13 15 -55 15
-42 0 -55 -3 -55 -15z"/>
<path d="M2510 2175 c0 -12 13 -15 55 -15 42 0 55 3 55 15 0 12 -13 15 -55 15
-42 0 -55 -3 -55 -15z"/>
<path d="M2720 2175 c0 -12 13 -15 55 -15 42 0 55 3 55 15 0 12 -13 15 -55 15
-42 0 -55 -3 -55 -15z"/>
<path d="M2930 2175 c0 -12 13 -15 55 -15 42 0 55 3 55 15 0 12 -13 15 -55 15
-42 0 -55 -3 -55 -15z"/>
<path d="M3140 2175 c0 -12 13 -15 55 -15 42 0 55 3 55 15 0 12 -13 15 -55 15
-42 0 -55 -3 -55 -15z"/>
<path d="M3350 2175 c0 -12 13 -15 55 -15 42 0 55 3 55 15 0 12 -13 15 -55 15
-42 0 -55 -3 -55 -15z"/>
<path d="M3560 2175 c0 -12 13 -15 55 -15 42 0 55 3 55 15 0 12 -13 15 -55 15
-42 0 -55 -3 -55 -15z"/>
<path d="M390 2015 c0 -42 3 -55 15 -55 12 0 15 13 15 55 0 42 -3 55 -15 55
-12 0 -15 -13 -15 -55z"/>
<path d="M3640 2005 c0 -42 3 -55 15 -55 12 0 15 13 15 55 0 42 -3 55 -15 55
-12 0 -15 -13 -15 -55z"/>
<path d="M2100 1870 c0 -33 4 -60 10 -60 6 0 10 16 10 35 0 24 5 35 15 35 10
0 15 -11 15 -35 0 -19 5 -35 11 -35 6 0 9 16 7 38 -2 30 -7 38 -25 40 -15 2
-23 10 -23 23 0 10 -4 19 -10 19 -6 0 -10 -27 -10 -60z"/>
<path d="M4050 1870 c0 -60 0 -60 30 -60 37 0 56 30 39 61 -7 14 -17 19 -30
16 -15 -4 -19 0 -19 19 0 13 -4 24 -10 24 -6 0 -10 -27 -10 -60z m55 -20 c0
-27 -22 -39 -31 -16 -8 22 3 49 19 43 6 -2 12 -14 12 -27z"/>
<path d="M4240 1870 c0 -60 0 -60 30 -60 37 0 56 30 39 61 -7 14 -17 19 -30
16 -15 -4 -19 0 -19 19 0 13 -4 24 -10 24 -6 0 -10 -27 -10 -60z m55 -20 c0
-27 -22 -39 -31 -16 -8 22 3 49 19 43 6 -2 12 -14 12 -27z"/>
<path d="M5040 1870 c0 -33 4 -60 10 -60 6 0 10 27 10 60 0 33 -4 60 -10 60
-6 0 -10 -27 -10 -60z"/>
<path d="M5080 1920 c0 -5 5 -10 10 -10 6 0 10 5 10 10 0 6 -4 10 -10 10 -5 0
-10 -4 -10 -10z"/>
<path d="M2442 1894 c-7 -8 -8 -14 -2 -14 5 0 10 -16 10 -35 0 -30 3 -35 23
-35 20 1 20 2 5 11 -10 5 -18 21 -18 34 0 17 6 25 18 26 13 0 14 2 2 6 -8 3
-17 9 -20 13 -3 4 -11 2 -18 -6z"/>
<path d="M2024 1876 c-16 -42 21 -85 49 -57 7 7 4 8 -10 5 -13 -4 -22 0 -26
10 -10 25 3 48 24 43 11 -3 17 -1 13 4 -8 14 -44 11 -50 -5z"/>
<path d="M2190 1849 c0 -22 5 -39 10 -39 6 0 10 13 10 30 0 17 7 33 17 38 13
8 11 10 -10 10 -25 0 -27 -4 -27 -39z"/>
<path d="M2262 1878 c-7 -7 -12 -22 -12 -35 0 -27 42 -42 65 -23 28 23 11 70
-25 70 -9 0 -21 -5 -28 -12z m43 -28 c0 -16 -6 -26 -17 -28 -14 -3 -18 3 -18
28 0 25 4 31 18 28 11 -2 17 -12 17 -28z"/>
<path d="M2350 1871 c-16 -32 4 -63 38 -59 24 3 27 7 27 38 0 31 -3 35 -27 38
-19 2 -30 -3 -38 -17z m55 -21 c0 -29 -32 -41 -41 -16 -9 24 4 48 23 44 12 -2
18 -12 18 -28z"/>
<path d="M4150 1875 c-26 -32 13 -81 48 -59 21 14 28 54 10 65 -20 13 -44 11
-58 -6z m50 -25 c0 -20 -5 -30 -15 -30 -18 0 -30 24 -21 45 10 28 36 17 36
-15z"/>
<path d="M4956 1882 c-3 -5 6 -7 19 -4 14 2 25 0 25 -6 0 -6 -10 -12 -22 -14
-36 -5 -31 -43 5 -44 26 -1 28 1 25 35 -2 28 -8 37 -25 39 -11 2 -24 -1 -27
-6z m44 -41 c0 -14 -18 -23 -30 -16 -6 4 -8 11 -5 16 8 12 35 12 35 0z"/>
<path d="M5080 1850 c0 -22 5 -40 10 -40 6 0 10 18 10 40 0 22 -4 40 -10 40
-5 0 -10 -18 -10 -40z"/>
<path d="M5124 1876 c-16 -41 20 -86 47 -59 6 6 1 9 -13 9 -18 -1 -23 4 -23
24 0 19 5 25 22 24 12 0 20 3 17 8 -8 13 -44 9 -50 -6z"/>
<path d="M5202 1878 c-25 -25 -6 -68 29 -68 10 0 20 4 23 8 3 5 -4 8 -16 8
-12 -1 -23 5 -25 12 -3 8 6 12 26 12 17 0 31 4 31 8 0 14 -23 32 -40 32 -9 0
-21 -5 -28 -12z m48 -8 c0 -5 -9 -10 -21 -10 -11 0 -17 5 -14 10 3 6 13 10 21
10 8 0 14 -4 14 -10z"/>
<path d="M390 1805 c0 -42 3 -55 15 -55 12 0 15 13 15 55 0 42 -3 55 -15 55
-12 0 -15 -13 -15 -55z"/>
<path d="M3640 1795 c0 -42 3 -55 15 -55 12 0 15 13 15 55 0 42 -3 55 -15 55
-12 0 -15 -13 -15 -55z"/>
<path d="M390 1595 c0 -42 3 -55 15 -55 12 0 15 13 15 55 0 42 -3 55 -15 55
-12 0 -15 -13 -15 -55z"/>
<path d="M3640 1585 c0 -42 3 -55 15 -55 12 0 15 13 15 55 0 42 -3 55 -15 55
-12 0 -15 -13 -15 -55z"/>
<path d="M2230 1460 l0 -50 -705 0 -705 0 0 -65 c0 -37 4 -65 10 -65 6 0 10
25 10 55 l0 55 385 0 385 0 0 -55 c0 -30 5 -55 10 -55 6 0 10 23 10 50 l0 50
288 0 c158 0 324 3 370 7 l82 6 0 -51 c0 -28 5 -54 10 -57 6 -4 10 15 10 49
l0 56 385 0 385 0 0 -49 c0 -28 5 -53 10 -56 6 -4 10 18 10 59 l0 66 -460 0
-460 0 0 50 c0 38 -4 50 -15 50 -11 0 -15 -12 -15 -50z"/>
<path d="M390 1385 c0 -42 3 -55 15 -55 12 0 15 13 15 55 0 42 -3 55 -15 55
-12 0 -15 -13 -15 -55z"/>
<path d="M3640 1375 c0 -42 3 -55 15 -55 12 0 15 13 15 55 0 42 -3 55 -15 55
-12 0 -15 -13 -15 -55z"/>
<path d="M390 1175 c0 -42 3 -55 15 -55 12 0 15 13 15 55 0 42 -3 55 -15 55
-12 0 -15 -13 -15 -55z"/>
<path d="M3640 1165 c0 -42 3 -55 15 -55 12 0 15 13 15 55 0 42 -3 55 -15 55
-12 0 -15 -13 -15 -55z"/>
<path d="M390 965 c0 -42 3 -55 15 -55 12 0 15 13 15 55 0 42 -3 55 -15 55
-12 0 -15 -13 -15 -55z"/>
<path d="M3640 955 c0 -42 3 -55 15 -55 12 0 15 13 15 55 0 42 -3 55 -15 55
-12 0 -15 -13 -15 -55z"/>
<path d="M720 912 l0 -59 33 1 c30 1 32 3 32 36 0 29 -4 36 -22 38 -15 2 -23
10 -23 23 0 10 -4 19 -10 19 -6 0 -10 -26 -10 -58z m55 -22 c0 -13 -6 -25 -12
-27 -16 -6 -27 21 -19 43 9 23 31 11 31 -16z"/>
<path d="M810 960 c0 -5 5 -10 10 -10 6 0 10 5 10 10 0 6 -4 10 -10 10 -5 0
-10 -4 -10 -10z"/>
<path d="M2170 910 c0 -33 4 -60 10 -60 6 0 10 16 10 35 0 24 5 35 15 35 10 0
15 -11 15 -35 0 -19 5 -35 11 -35 6 0 9 16 7 38 -2 30 -7 38 -25 40 -15 2 -23
10 -23 23 0 10 -4 19 -10 19 -6 0 -10 -27 -10 -60z"/>
<path d="M1588 938 c-2 -7 -2 -29 2 -48 3 -25 11 -35 25 -37 11 -2 14 0 8 3
-16 7 -17 64 -2 64 6 0 4 7 -5 15 -18 18 -23 19 -28 3z"/>
<path d="M810 890 c0 -22 5 -40 10 -40 6 0 10 18 10 40 0 22 -4 40 -10 40 -5
0 -10 -18 -10 -40z"/>
<path d="M861 885 l2 -40 6 35 c8 46 35 48 39 3 4 -36 22 -46 22 -12 0 35 -19
59 -45 57 -22 -2 -25 -7 -24 -43z"/>
<path d="M1502 918 c-25 -25 -6 -68 29 -68 10 0 20 4 23 8 3 5 -4 8 -16 8 -12
-1 -23 5 -25 12 -3 8 6 12 26 12 17 0 31 4 31 8 0 14 -23 32 -40 32 -9 0 -21
-5 -28 -12z m48 -8 c0 -5 -9 -10 -21 -10 -11 0 -17 5 -14 10 3 6 13 10 21 10
8 0 14 -4 14 -10z"/>
<path d="M1652 918 c-25 -25 -6 -68 30 -68 10 0 18 4 18 9 0 5 -9 7 -20 4 -17
-5 -20 0 -20 27 0 27 3 32 20 27 11 -3 20 -1 20 4 0 13 -34 11 -48 -3z"/>
<path d="M2272 918 c-7 -7 -12 -22 -12 -35 0 -27 42 -42 65 -23 28 23 11 70
-25 70 -9 0 -21 -5 -28 -12z m43 -28 c0 -16 -6 -26 -17 -28 -14 -3 -18 3 -18
28 0 25 4 31 18 28 11 -2 17 -12 17 -28z"/>
<path d="M2360 888 c0 -21 5 -38 10 -38 6 0 10 16 10 35 0 24 5 35 15 35 10 0
15 -11 15 -35 0 -44 18 -46 22 -3 4 46 28 49 28 4 0 -20 5 -36 11 -36 6 0 9
16 7 38 l-3 37 -57 1 -58 1 0 -39z"/>
<path d="M2512 921 c-8 -4 -12 -21 -10 -37 2 -22 9 -30 27 -32 13 -2 28 1 33
6 6 6 1 8 -15 5 -16 -3 -26 1 -30 11 -5 12 0 16 24 16 24 0 30 4 27 18 -4 19
-36 27 -56 13z m43 -11 c4 -6 -5 -10 -20 -10 -15 0 -24 4 -20 10 3 6 12 10 20
10 8 0 17 -4 20 -10z"/>
<path d="M3060 909 c0 -35 19 -59 45 -57 22 2 25 7 24 43 l-2 40 -6 -35 c-8
-46 -35 -48 -39 -2 -4 35 -22 45 -22 11z"/>
<path d="M3167 923 c-13 -13 -7 -32 13 -38 11 -4 18 -11 14 -16 -3 -5 -15 -7
-27 -3 -17 5 -19 3 -11 -6 7 -6 20 -10 30 -8 27 5 30 35 5 43 -27 8 -27 29 -1
22 11 -3 18 -1 14 4 -6 11 -28 12 -37 2z"/>
<path d="M3230 890 c0 -22 5 -40 10 -40 6 0 10 13 10 30 0 17 7 33 18 39 14 9
13 10 -10 11 -26 0 -28 -3 -28 -40z"/>
<path d="M390 755 c0 -42 3 -55 15 -55 12 0 15 13 15 55 0 42 -3 55 -15 55
-12 0 -15 -13 -15 -55z"/>
<path d="M3640 745 c0 -42 3 -55 15 -55 12 0 15 13 15 55 0 42 -3 55 -15 55
-12 0 -15 -13 -15 -55z"/>
<path d="M390 545 c0 -42 3 -55 15 -55 12 0 15 13 15 55 0 42 -3 55 -15 55
-12 0 -15 -13 -15 -55z"/>
<path d="M1800 514 c0 -65 -2 -75 -16 -70 -11 4 -14 1 -12 -11 5 -25 39 -29
55 -7 8 11 13 46 13 91 0 66 -2 73 -20 73 -18 0 -20 -7 -20 -76z"/>
<path d="M1887 508 c-15 -46 -27 -86 -27 -90 0 -17 29 -7 35 12 5 15 15 20 40
20 25 0 35 -5 40 -20 5 -17 45 -30 45 -16 0 3 -14 43 -31 90 -26 72 -34 86
-53 86 -18 0 -26 -13 -49 -82z m67 -5 c6 -20 4 -23 -18 -23 -30 0 -29 -2 -15
40 12 34 19 30 33 -17z"/>
<path d="M2040 500 c0 -83 1 -90 20 -90 19 0 20 7 20 90 0 83 -1 90 -20 90
-19 0 -20 -7 -20 -90z"/>
<path d="M2120 500 l0 -90 45 0 c33 0 45 4 45 15 0 10 -10 15 -30 15 l-30 0 0
75 c0 60 -3 75 -15 75 -12 0 -15 -17 -15 -90z"/>
<path d="M3640 535 c0 -42 3 -55 15 -55 12 0 15 13 15 55 0 42 -3 55 -15 55
-12 0 -15 -13 -15 -55z"/>
<path d="M390 335 c0 -42 3 -55 15 -55 12 0 15 13 15 55 0 42 -3 55 -15 55
-12 0 -15 -13 -15 -55z"/>
<path d="M3642 323 c4 -81 28 -85 28 -4 0 48 -3 61 -15 61 -13 0 -15 -11 -13
-57z"/>
<path d="M500 275 c0 -12 13 -15 55 -15 42 0 55 3 55 15 0 12 -13 15 -55 15
-42 0 -55 -3 -55 -15z"/>
<path d="M710 275 c0 -12 13 -15 55 -15 42 0 55 3 55 15 0 12 -13 15 -55 15
-42 0 -55 -3 -55 -15z"/>
<path d="M920 275 c0 -12 13 -15 55 -15 42 0 55 3 55 15 0 12 -13 15 -55 15
-42 0 -55 -3 -55 -15z"/>
<path d="M1130 275 c0 -12 13 -15 55 -15 42 0 55 3 55 15 0 12 -13 15 -55 15
-42 0 -55 -3 -55 -15z"/>
<path d="M1340 275 c0 -12 13 -15 55 -15 42 0 55 3 55 15 0 12 -13 15 -55 15
-42 0 -55 -3 -55 -15z"/>
<path d="M1550 275 c0 -12 13 -15 55 -15 42 0 55 3 55 15 0 12 -13 15 -55 15
-42 0 -55 -3 -55 -15z"/>
<path d="M1760 275 c0 -12 13 -15 55 -15 42 0 55 3 55 15 0 12 -13 15 -55 15
-42 0 -55 -3 -55 -15z"/>
<path d="M1970 275 c0 -12 13 -15 55 -15 42 0 55 3 55 15 0 12 -13 15 -55 15
-42 0 -55 -3 -55 -15z"/>
<path d="M2180 275 c0 -12 13 -15 55 -15 42 0 55 3 55 15 0 12 -13 15 -55 15
-42 0 -55 -3 -55 -15z"/>
<path d="M2390 275 c0 -12 13 -15 55 -15 42 0 55 3 55 15 0 12 -13 15 -55 15
-42 0 -55 -3 -55 -15z"/>
<path d="M2600 275 c0 -12 13 -15 55 -15 42 0 55 3 55 15 0 12 -13 15 -55 15
-42 0 -55 -3 -55 -15z"/>
<path d="M2810 275 c0 -12 13 -15 55 -15 42 0 55 3 55 15 0 12 -13 15 -55 15
-42 0 -55 -3 -55 -15z"/>
<path d="M3020 275 c0 -12 13 -15 55 -15 42 0 55 3 55 15 0 12 -13 15 -55 15
-42 0 -55 -3 -55 -15z"/>
<path d="M3230 275 c0 -12 13 -15 55 -15 42 0 55 3 55 15 0 12 -13 15 -55 15
-42 0 -55 -3 -55 -15z"/>
<path d="M3440 275 c0 -12 13 -15 55 -15 42 0 55 3 55 15 0 12 -13 15 -55 15
-42 0 -55 -3 -55 -15z"/>
</g>
</svg>
